<svg width="55" height="54" viewBox="0 0 55 54" fill="none" xmlns="http://www.w3.org/2000/svg">
<rect x="0.5" width="54" height="54" rx="27" fill="#E2E1D6"/>
<path d="M26.25 37C26.25 37.6904 26.8096 38.25 27.5 38.25C28.1904 38.25 28.75 37.6904 28.75 37L26.25 37ZM28.3839 16.1161C27.8957 15.628 27.1043 15.628 26.6161 16.1161L18.6612 24.0711C18.173 24.5592 18.173 25.3507 18.6612 25.8388C19.1493 26.327 19.9408 26.327 20.4289 25.8388L27.5 18.7678L34.5711 25.8388C35.0592 26.327 35.8507 26.327 36.3388 25.8388C36.827 25.3507 36.827 24.5592 36.3388 24.0711L28.3839 16.1161ZM28.75 37L28.75 17L26.25 17L26.25 37L28.75 37Z" fill="#484038"/>
</svg>
