<svg width="61" height="60" viewBox="0 0 61 60" fill="none" xmlns="http://www.w3.org/2000/svg">
<path d="M5.58179 55.1677H55.9174H5.58179ZM16.9073 17.4157H44.5919H16.9073Z" fill="#CBAC0A"/>
<path d="M5.58179 55.1677H55.9174M16.9073 17.4157H44.5919" stroke="#CBAC0A" stroke-width="4.83224" stroke-linecap="round" stroke-linejoin="round"/>
<path d="M20.6824 17.4157H40.8166L45.8501 55.1677H15.6488L20.6824 17.4157Z" stroke="#CBAC0A" stroke-width="4.83224" stroke-linejoin="round"/>
<path d="M19.4238 30.0001H42.0748M16.907 42.5841H44.5915" stroke="#CBAC0A" stroke-width="4.83224" stroke-linecap="round"/>
<path d="M40.8166 17.4157L45.8501 55.1677M20.6824 17.4157L15.6488 55.1677" stroke="#CBAC0A" stroke-width="4.83224" stroke-linejoin="round"/>
<path d="M30.7494 9.86587L31.7913 8.82391C32.2588 8.35631 32.8138 7.98539 33.4246 7.73233C34.0354 7.47928 34.6901 7.34904 35.3513 7.34906H36.2146C36.8757 7.34909 37.5305 7.21885 38.1413 6.96579C38.7521 6.71273 39.3071 6.34181 39.7746 5.87422L40.8165 4.83226" stroke="#CBAC0A" stroke-width="4.83224" stroke-linecap="round" stroke-linejoin="round"/>
</svg>
