<svg width="61" height="60" viewBox="0 0 61 60" fill="none" xmlns="http://www.w3.org/2000/svg">
<path d="M55.7493 55H5.74927V50H55.7493V55ZM55.7493 15H5.74927V7.5H55.7493V15ZM50.7493 17.5V47.5H43.2493V27.5C43.2493 27.5 36.9993 25 30.7493 25C24.4993 25 18.2493 27.5 18.2493 27.5V47.5H10.7493V17.5H50.7493ZM36.9993 36.675H36.9243L37.7743 38.05L37.9243 38.35C38.9743 40.875 38.2493 43.75 36.2743 45.6C34.4993 47.25 31.9993 47.675 29.6993 47.375C27.5243 47.1 25.4993 45.725 24.3743 43.825C23.9993 43.25 23.7243 42.575 23.5743 41.925L23.2493 40.275C23.1493 37.875 24.0993 35.35 25.8993 33.85C25.0743 35.65 25.2743 37.9 26.4993 39.475L26.6493 39.675C26.8493 39.85 27.1243 39.925 27.3493 39.8C27.5743 39.725 27.7493 39.5 27.7493 39.25L27.6493 38.9C26.3243 35.425 27.4493 31.375 30.2243 29.075C30.9993 28.45 31.9993 27.875 32.9243 27.625C31.8993 29.675 32.2743 32.325 33.8743 33.925L36.0993 35.75L36.9993 36.675ZM33.5243 43.6C34.1743 43 34.5743 42 34.4993 41.1V40.625C34.1993 39.125 32.8743 38.65 31.9993 37.5L31.3993 36.375C31.0743 37.125 31.0493 37.825 31.1743 38.65C31.3243 39.5 31.6743 40.225 31.4743 41.1C31.2493 42.075 30.4993 43.05 29.1743 43.375C29.9243 44.1 31.1243 44.675 32.3493 44.275L33.5243 43.6Z" fill="#CBAC0A"/>
</svg>
