<svg width="61" height="60" viewBox="0 0 61 60" fill="none" xmlns="http://www.w3.org/2000/svg">
<path d="M54.4214 12.3047H22.7808C21.7437 12.3047 20.9058 13.1426 20.9058 14.1797V28.0078H7.07764C6.04053 28.0078 5.20264 28.8457 5.20264 29.8828V45.8203C5.20264 46.8574 6.04053 47.6953 7.07764 47.6953H38.7183C39.7554 47.6953 40.5933 46.8574 40.5933 45.8203V31.9922H54.4214C55.4585 31.9922 56.2964 31.1543 56.2964 30.1172V14.1797C56.2964 13.1426 55.4585 12.3047 54.4214 12.3047ZM36.6089 43.7109H24.8901V31.9922H36.6089V43.7109ZM52.312 28.0078H40.5933V16.2891H52.312V28.0078Z" fill="#CBAC0A"/>
</svg>
